<?xml version="1.0" encoding="utf-8"?>
<!-- Generator: Adobe Illustrator 18.1.0, SVG Export Plug-In . SVG Version: 6.00 Build 0)  -->
<svg version="1.1" id="Layer_1" xmlns="http://www.w3.org/2000/svg" xmlns:xlink="http://www.w3.org/1999/xlink" x="0px" y="0px"
	 viewBox="0 0 500 500" enable-background="new 0 0 500 500" xml:space="preserve">
<path fill="#2F2012" d="M250,0c-74.7,0-135.3,60.6-135.3,135.3c0,17.1,3.2,33.5,9,48.6C189.8,376.8,250,500,250,500
	s60.2-123.1,126.3-316.1c5.8-15.1,9-31.5,9-48.6C385.3,60.6,324.7,0,250,0z M250,194.7c-31.5,0-56.9-25.5-56.9-56.9
	c0-31.5,25.5-56.9,56.9-56.9c31.5,0,56.9,25.5,56.9,56.9S281.5,194.7,250,194.7z"/>
</svg>
